<svg xmlns="http://www.w3.org/2000/svg" width="176" height="38">
    <g fill="#FFF" fill-rule="evenodd">
        <path d="M5.07395 14.906925c5.19745 0 9.03355 3.8361 9.03355 8.6621 0 4.82695-3.8361 8.66305-9.03355 8.66305H0v-17.32515h5.07395zm-3.8361 1.23785v14.8504h3.8361c4.579 0 7.79665-3.2186 7.79665-7.42615 0-4.2066-3.21765-7.42425-7.79665-7.42425h-3.8361zm16.125775-.86678c.49495 0 .86545.37145.86545.8664 0 .49495-.3705.8664-.86545.8664-.49495 0-.8664-.37145-.8664-.8664 0-.49495.37145-.8664.8664-.8664zm-.6194 16.9537h1.1134v-11.87975h-1.1134v11.87975zm13.28575-2.7227s-1.3623 2.4757-4.4555 2.4757c-2.8462 0-5.44445-2.5992-5.44445-5.94035 0-3.34115 2.59825-5.94035 5.44445-5.94035 3.0932 0 4.4555 2.47475 4.4555 2.47475v-2.2268h1.1134v11.13685c0 3.3421-2.59825 5.94035-5.6924 5.94035-3.21765 0-4.70345-2.47475-4.70345-2.47475l.74385-.7429s1.3604 2.10425 3.9596 2.10425c2.47475 0 4.579-2.10425 4.579-4.82695v-1.9798zm-4.4555 1.36135c2.2268 0 4.4555-2.1033 4.4555-4.826 0-2.7227-2.2287-4.826-4.4555-4.826s-4.33105 2.1033-4.33105 4.826c0 2.7227 2.10425 4.826 4.33105 4.826zm9.344675-15.59235c.49495 0 .8664.37145.8664.8664 0 .49495-.37145.8664-.8664.8664-.49495 0-.8664-.37145-.8664-.8664 0-.49495.37145-.8664.8664-.8664zm-.6194 16.9537h1.1134v-11.87975h-1.1134v11.87975zm5.309075-15.83992h.98895v3.9596h2.7227v1.11435h-2.7227v7.7957c0 1.36135.7429 2.10425 1.8563 2.10425.8664 0 1.60835-.37145 1.60835-.37145v1.11435s-.74195.3705-1.60835.3705c-1.8563 0-2.9697-1.1134-2.9697-3.21765v-7.7957h-2.3503v-1.11435h1.60835c.494 0 .8664-.3705.8664-.9899v-2.9697zM53.43769 24.80678c0-2.0539-1.43545-3.5891-3.34115-3.5891-2.17835 0-3.46465 1.7328-3.46465 1.7328l-.74195-.74195s1.5333-2.10425 4.2066-2.10425c2.54885 0 4.45645 2.0539 4.45645 4.7025v7.4252h-1.1153v-1.9798s-1.36135 2.2268-4.33105 2.2268c-2.3503 0-3.9596-1.60835-3.9596-3.34115 0-1.8563 1.3604-3.24235 3.5891-3.5891l4.70155-.74195zm0 2.22775v-1.11435l-4.4536.7429c-1.85725.29735-2.72365 1.2369-2.72365 2.47475 0 1.11435 1.1134 2.22775 2.8462 2.22775 2.4757 0 4.33105-1.8563 4.33105-4.33105zM57.584 32.232h1.115V14.907h-1.115zM74.909115 32.479075c-4.84975 0-8.78655-3.9596-8.78655-8.91005s3.96055-8.91005 8.78655-8.91005c4.8754 0 8.78655 3.9596 8.78655 8.91005s-3.91115 8.91005-8.78655 8.91005m0-16.58225c-4.20755 0-7.5487 3.34115-7.5487 7.6722s3.34115 7.67315 7.5487 7.67315 7.5487-3.3421 7.5487-7.67315c0-4.33105-3.34115-7.6722-7.5487-7.6722m12.57458 21.5327h-1.1153v-17.0772h1.1153v2.35125s1.4839-2.5992 4.57805-2.5992c2.84525 0 5.56985 2.7227 5.56985 6.18735 0 3.4656-2.7246 6.18735-5.56985 6.18735-3.09415 0-4.57805-2.59825-4.57805-2.59825v7.5487zm4.57805-6.06385c2.22775 0 4.4555-2.2268 4.4555-5.07395 0-2.8462-2.22775-5.073-4.4555-5.073-2.3503 0-4.57805 2.2268-4.57805 5.073 0 2.84715 2.22775 5.07395 4.57805 5.07395zm8.22833-4.578715c.1235 2.47475 2.22775 4.579 4.70155 4.579 2.5992 0 3.9596-2.07955 3.9596-2.07955l.7429.7182s-1.6093 2.47475-4.7025 2.47475c-3.09415 0-5.81685-2.7227-5.81685-6.18735 0-3.46465 2.7227-6.18735 5.69335-6.18735 2.9697 0 5.4454 2.47475 5.4454 6.18735v.49495h-10.02345zm0-1.1134h8.91005c-.12445-2.5992-1.9798-4.4555-4.332-4.4555-2.3503 0-4.45455 2.10425-4.57805 4.4555zm18.12239-4.45531h-.49495c-2.22775 0-4.20755 1.7328-4.20755 4.33105v6.6823h-1.11435V20.35185h1.11435v1.9798s1.11435-2.2268 4.20755-2.2268h.49495v1.1134zm8.592655 3.58853c0-2.0539-1.43545-3.5891-3.34115-3.5891-2.17835 0-3.4656 1.7328-3.4656 1.7328l-.741-.74195s1.5333-2.10425 4.2066-2.10425c2.54885 0 4.45455 2.0539 4.45455 4.7025v7.4252h-1.1134v-1.9798s-1.36135 2.2268-4.33105 2.2268c-2.3503 0-3.96055-1.60835-3.96055-3.34115 0-1.8563 1.36135-3.24235 3.59005-3.5891l4.70155-.74195zm0 2.22775v-1.11435l-4.45455.7429c-1.85725.29735-2.7227 1.2369-2.7227 2.47475 0 1.11435 1.1134 2.22775 2.8462 2.22775 2.47475 0 4.33105-1.8563 4.33105-4.33105zm4.670295-10.642755h.9899v3.9596h2.72175v1.11435h-2.72175v7.7957c0 1.36135.74195 2.10425 1.8563 2.10425.86545 0 1.6074-.37145 1.6074-.37145v1.11435s-.74195.3705-1.6074.3705c-1.8563 0-2.97065-1.1134-2.97065-3.21765v-7.7957h-2.3503v-1.11435h1.60835c.494 0 .8664-.3705.8664-.9899v-2.9697zm6.889305-1.11378c.49495 0 .8664.37145.8664.8664 0 .49495-.37145.8664-.8664.8664-.49495 0-.8664-.37145-.8664-.8664 0-.49495.37145-.8664.8664-.8664zm-.61845 16.9537h1.1134v-11.87975h-1.1134v11.87975zm9.324345-12.12713c3.2186 0 5.9413 2.7227 5.9413 6.18735 0 3.46465-2.7227 6.18735-5.9413 6.18735-3.21765 0-5.94035-2.7227-5.94035-6.18735 0-3.46465 2.7227-6.18735 5.94035-6.18735m0 1.1134c-2.5973 0-4.826 2.22775-4.826 5.07395s2.2287 5.07395 4.826 5.07395c2.59825 0 4.826-2.22775 4.826-5.07395s-2.22775-5.07395-4.826-5.07395m9.38676 1.23747s1.1134-2.35125 4.08405-2.35125c2.72175 0 4.826 2.10425 4.826 5.07395v7.05375h-1.11435v-7.05375c0-2.35125-1.6074-3.9596-3.71165-3.9596-2.22775 0-4.08405 1.8563-4.08405 4.3301v6.68325h-1.11435v-11.87975h1.11435v2.1033zm17.792075.247665s-.9899-1.48485-2.8462-1.48485c-1.7328 0-2.7227 1.0146-2.7227 2.1033 0 2.8462 6.80675 1.48485 6.80675 5.5689 0 1.9798-1.61025 3.5891-4.20755 3.5891-2.7227 0-4.2085-1.98075-4.2085-1.98075l.86545-.86545s1.23785 1.73185 3.34305 1.73185c1.9798 0 3.09415-1.1134 3.09415-2.47475 0-2.9697-6.80675-1.60835-6.80675-5.5689 0-1.60835 1.6074-3.2167 3.8361-3.2167 2.35125 0 3.7126 1.73185 3.7126 1.73185l-.8664.8664zM34.138915 7.765205l3.53685-3.4561h-3.48365v-1.62735h5.95745v1.65395l-3.53685 3.4428h3.60335v1.62735h-6.07715v-1.64065zm-2.5137-5.6221h1.84205V.470155h-1.84205v1.67295zm-.0247 7.2827h1.843v-6.7241h-1.843v6.7241zm-18.8005.11495c1.9361 0 3.4827-1.56085 3.4827-3.49695s-1.5466-3.496-3.4827-3.496c-1.93515 0-3.48175 1.5599-3.48175 3.496s1.5466 3.49695 3.48175 3.49695zm0-1.74895c-.95475 0-1.6796-.79325-1.6796-1.748s.72485-1.748 1.6796-1.748c.94145 0 1.6948.79325 1.6948 1.748s-.75335 1.748-1.6948 1.748zm11.79805-5.11005h1.8297v.75335c.43035-.55195 1.08775-.8873 1.85535-.8873 1.58745 0 2.5422 1.02125 2.5422 2.75595v4.1021h-1.8696v-3.85985c0-.9006-.418-1.425-1.23785-1.425-.69825 0-1.27775.48355-1.27775 1.6131v3.67175h-1.84205v-6.7241zm18.9658 6.859c.874 0 1.5865-.36385 2.03015-.88825v.75335h1.843v-6.7241h-1.843v.6593c-.44365-.4712-1.1305-.79325-2.0045-.79325-1.5181 0-3.26705 1.1153-3.26705 3.496 0 2.36645 1.81545 3.49695 3.2414 3.49695zm.3629-1.6948c-1.0222 0-1.8031-.77995-1.8031-1.81545 0-1.0355.7809-1.80215 1.8031-1.80215.9956 0 1.72045.80655 1.72045 1.80215 0 .99465-.72485 1.81545-1.72045 1.81545zm4.2522-5.1642h1.8297v.75335c.43035-.55195 1.08965-.8873 1.85535-.8873 1.5865 0 2.5422 1.02125 2.5422 2.75595v4.1021h-1.8696v-3.85985c0-.9006-.4161-1.425-1.2369-1.425-.6992 0-1.2768.48355-1.2768 1.6131v3.67175h-1.84395v-6.7241zm-40.82625 3.3041l-.02565.0532c-.5092 1.0716-1.444 1.6872-2.5669 1.6872-1.62735 0-2.9013-1.2863-2.9013-2.9279 0-1.6834 1.2635-2.95355 2.9393-2.95355 1.08775 0 1.9133.5092 2.45385 1.51335l.02945.05415 1.6397-1.0488-.0266-.04655c-.8531-1.45065-2.3826-2.31705-4.0964-2.31705-2.736 0-4.79845 2.06245-4.79845 4.79845 0 2.78065 2.0178 4.79845 4.79845 4.79845 1.7936 0 3.3763-.99465 4.23605-2.66095l.0266-.0494-1.7081-.9006zm12.63595 3.5549c.874 0 1.5865-.36385 2.03015-.88825v.6327c0 .874-.63175 1.65395-1.62735 1.65395-.89965 0-1.5181-.44365-1.8677-1.14285l-1.62735.9139c.5377 1.0488 1.7879 1.93705 3.49505 1.93705 2.27335 0 3.47035-1.5333 3.47035-3.4295v-6.536h-1.843v.72675c-.44365-.4978-1.1286-.8607-2.0026-.8607-1.52095 0-3.26895 1.1153-3.26895 3.496 0 2.36645 1.81545 3.49695 3.2414 3.49695zm.3629-1.6948c-1.0222 0-1.8012-.77995-1.8012-1.81545 0-1.0355.779-1.80215 1.8012-1.80215.99465 0 1.72235.80655 1.72235 1.80215 0 .99465-.7277 1.81545-1.72235 1.81545zm38.59185-3.51025v-1.65395h-1.26445V.463505h-1.8411v2.21825h-1.14285v1.65395h1.14285v2.15175c0 2.1926.69825 2.9184 2.8367 2.9184h.26885v-1.7214c-1.1286 0-1.26445-.1615-1.26445-1.2103v-2.13845h1.26445z"/>
    </g>
</svg>